<svg xmlns="http://www.w3.org/2000/svg" viewBox="0 0 960 480"
     width="960" height="480" fill="none" preserveAspectRatio="xMidYMid meet"
     style="max-width:100%;height:auto;">
  <style>
    line, rect, polygon, path, circle, ellipse { vector-effect: non-scaling-stroke; }
    .d-group-title-red    { font: 600 13px/1.2 'Inter', system-ui, sans-serif; letter-spacing: 0.2em; text-transform: uppercase; fill: #EC291C; }
    .d-group-title-neutral{ font: 600 13px/1.2 'Inter', system-ui, sans-serif; letter-spacing: 0.2em; text-transform: uppercase; fill: #525263; }
    .d-card-title         { font: 400 14px/1.2 'Inter', system-ui, sans-serif; fill: #353B50; }
    .d-card-sub           { font: 400 12px/1.4 'Inter', system-ui, sans-serif; fill: #525263; }
    .d-conn-op            { font: 400 11px/1.2 'Inter', system-ui, sans-serif; fill: #353B50; }
  </style>

  <!-- MEMBER (neutral, top-left) -->
  <rect x="20" y="100" width="160" height="100" fill="#F6F7F8" stroke="#D3DBE6" stroke-width="2" rx="14"/>
  <text x="100" y="142" text-anchor="middle" class="d-group-title-neutral">Member</text>
  <text x="100" y="170" text-anchor="middle" class="d-card-sub">via 3rd-party app</text>

  <!-- PAYERBOX FHIR PLATFORM (red, top-center) -->
  <rect x="370" y="100" width="220" height="100" fill="#FCEEEB" stroke="#EA4A35" stroke-width="2" rx="14"/>
  <text x="480" y="142" text-anchor="middle" class="d-group-title-red">Payerbox</text>
  <text x="480" y="170" text-anchor="middle" class="d-card-sub">FHIR platform</text>

  <!-- HEALTH PLAN DATA SOURCES (neutral, top-right) -->
  <rect x="780" y="100" width="160" height="100" fill="#F6F7F8" stroke="#D3DBE6" stroke-width="2" rx="14"/>
  <text x="860" y="142" text-anchor="middle" class="d-group-title-neutral">Health Plan</text>
  <text x="860" y="170" text-anchor="middle" class="d-group-title-neutral">data sources</text>

  <!-- MEMBER PORTAL (red, bottom-center) -->
  <rect x="360" y="300" width="240" height="120" fill="#FCEEEB" stroke="#EA4A35" stroke-width="2" rx="14"/>
  <text x="480" y="345" text-anchor="middle" class="d-group-title-red">Member portal</text>
  <text x="480" y="375" text-anchor="middle" class="d-card-sub">App gallery</text>
  <text x="480" y="395" text-anchor="middle" class="d-card-sub">Consent management</text>

  <!-- Health Plan -> Payerbox: Members' data -->
  <line x1="780" y1="150" x2="592" y2="150" stroke="#353B50" stroke-width="1"/>
  <polygon points="590,150 598,146 598,154" fill="#353B50"/>
  <rect x="638" y="144" width="94" height="12" fill="#FFFFFF"/>
  <text x="685" y="154" text-anchor="middle" class="d-conn-op">Members' data</text>

  <!-- Member -> Payerbox: SMART launch + FHIR read -->
  <line x1="182" y1="150" x2="368" y2="150" stroke="#353B50" stroke-width="1"/>
  <polygon points="370,150 362,146 362,154" fill="#353B50"/>
  <rect x="208" y="144" width="134" height="12" fill="#FFFFFF"/>
  <text x="275" y="154" text-anchor="middle" class="d-conn-op">SMART launch + read</text>

  <!-- Member portal -> Member: App gallery + launch (from portal top-center, curved up-left into Member bottom-center) -->
  <path d="M 480 300 L 480 250 L 100 250 L 100 202" stroke="#353B50" stroke-width="1" fill="none"/>
  <polygon points="100,200 96,208 104,208" fill="#353B50"/>
  <rect x="220" y="244" width="140" height="12" fill="#FFFFFF"/>
  <text x="290" y="254" text-anchor="middle" class="d-conn-op">App gallery + launch</text>
</svg>
